<svg width="120" height="29" viewBox="0 0 120 29" fill="none" xmlns="http://www.w3.org/2000/svg">
<path fill-rule="evenodd" clip-rule="evenodd" d="M90.7471 20.792V11.292H85.5161V21.802C85.5161 25.358 89.1971 28.244 93.7391 28.244C98.2811 28.244 101.962 25.358 101.962 21.802V11.292H96.7701V20.792C96.7701 22.372 95.4201 23.656 93.7601 23.656C92.0991 23.656 90.7501 22.373 90.7501 20.792H90.7471Z" fill="#FF0049"/>
<path d="M119.029 0H113.76V27.652H119.029V0ZM110.125 0H104.856V27.652H110.125V0Z" fill="#FF0049"/>
<path fill-rule="evenodd" clip-rule="evenodd" d="M8.46899 5.80201H5.605V27.652H0V1.26901H9.63499C14.022 1.26901 17.575 4.75701 17.575 9.06001C17.575 12.724 14.997 15.796 11.527 16.63L19.27 27.652H12.662L7.061 19.014V12.704H8.362C10.431 12.704 12.109 11.157 12.109 9.25101C12.109 7.34401 10.538 5.79801 8.466 5.79801L8.46899 5.80201Z" fill="#FF0049"/>
<path d="M35.8271 20.546C35.8624 20.186 35.8784 19.817 35.8751 19.439C35.9551 13.738 32.1811 10.607 27.3721 10.607C22.5631 10.607 18.6641 14.554 18.6641 19.422C18.6641 24.29 22.5631 28.244 27.3721 28.244C31.0421 28.244 33.9071 26.583 35.3811 23.981L31.1051 22.009C30.5581 23.186 29.2851 24.016 27.8041 24.012C25.7531 24.009 24.2381 22.504 24.2201 20.729V20.549H35.8241L35.8271 20.546ZM24.2031 17.516C24.2179 16.6725 24.5635 15.8686 25.1652 15.2773C25.767 14.686 26.5769 14.3547 27.4206 14.3547C28.2642 14.3547 29.0741 14.686 29.6759 15.2773C30.2777 15.8686 30.6232 16.6725 30.6381 17.516H24.1991H24.2031ZM56.7981 27.652L56.7911 0H51.5401V13.084C50.1421 11.7 48.2811 10.863 46.2471 10.863C41.8951 10.863 38.3691 14.72 38.3691 19.48C38.3691 24.24 41.8951 28.098 46.2471 28.098C48.3021 28.098 50.1631 27.223 51.5641 25.811V27.651L56.7981 27.652ZM47.7411 23.612C45.6071 23.612 43.8731 21.715 43.8731 19.38C43.8731 17.045 45.6031 15.15 47.7411 15.15C49.8791 15.15 51.6091 17.045 51.6091 19.38C51.6091 21.715 49.8791 23.611 47.7411 23.611V23.612ZM79.0681 13.291C80.5111 11.945 81.3931 10.143 81.3931 8.164C81.3931 6.372 80.7011 4.722 79.4941 3.428C78.2381 2.044 76.0141 1.269 73.0071 1.269H64.0021V27.652H75.6331C80.0891 27.579 83.6801 24.213 83.6801 20.086C83.6801 17.083 82.6211 14.941 79.0721 13.291H79.0681ZM74.6581 23.071H69.6171V5.801H73.1321C74.6751 5.801 75.9271 7.213 75.9271 8.759C75.9273 9.12617 75.8552 9.48978 75.7149 9.82906C75.5745 10.1683 75.3687 10.4766 75.1091 10.7363C74.8495 10.996 74.5413 11.2019 74.202 11.3424C73.8628 11.4829 73.4992 11.5551 73.1321 11.555H71.3021V16.298H74.6581C76.5291 16.298 77.9441 17.806 77.9441 19.678C77.8781 21.611 76.6921 22.947 74.6581 23.071Z" fill="#FF0049"/>
</svg>
