<svg width="95" height="36" viewBox="0 0 95 36" fill="none" xmlns="http://www.w3.org/2000/svg">
<path d="M47.2671 36C57.2071 36 65.2671 27.941 65.2671 18C65.2671 8.059 57.2071 0 47.2671 0C37.3261 0 29.2671 8.059 29.2671 18C29.2671 27.941 37.3261 36 47.2671 36Z" fill="#FFCC00"/>
<path d="M45.983 26.351C44.966 25.777 44.765 24.646 44.233 23.954C44.015 23.68 43.655 23.376 43.558 23.127C42.641 20.781 42.33 19.463 42.008 17.173C41.842 16 41.064 15.011 39.929 13.623C39.434 13.018 38.729 12.018 38.119 11.427C36.072 9.701 34.965 8.742 33.599 7.822C33.3321 7.64095 33.0493 7.48464 32.754 7.355H32.747C32.7418 7.35395 32.737 7.35153 32.733 7.348C32.277 7.148 31.865 7.092 31.304 7.061C31.2294 7.05658 31.1547 7.05424 31.08 7.054C30.062 7.054 29.094 7.424 28.118 8.178C27.409 8.642 26.596 8.901 25.808 9.15C24.814 9.465 23.783 9.794 22.943 10.527C22.793 10.635 22.656 10.787 22.521 10.929C22.337 11.126 22.206 11.351 21.926 11.441C21.683 11.496 21.51 11.496 21.313 11.513C21.0024 11.5364 20.6937 11.5805 20.389 11.645C19.355 11.89 18.563 12.527 17.729 13.202L17.445 13.43C16.905 13.859 15.975 14.25 15.449 14.267C13.979 14.312 12.938 14.658 11.855 15.464C10.737 16.319 9.54 17.201 8.215 17.744C7.91068 17.8622 7.58745 17.9242 7.261 17.927C6.915 17.927 6.42 17.851 6.026 17.485C5.524 17.021 5.358 16.128 5.659 15.53C6.109 14.644 7.025 13.921 7.773 13.388C8.738 12.658 9.672 11.7 9.257 10.112C8.81 8.659 7.036 8.192 5.863 7.881C5.531 7.794 5.243 7.718 5.074 7.639C4.704 7.466 4.444 7.289 4.192 7.119C3.94726 6.94152 3.68406 6.79098 3.407 6.67C3.36 6.65345 3.31079 6.64401 3.261 6.642C3.09567 6.642 2.96333 6.72167 2.864 6.881C2.441 7.618 2.317 8.369 2.494 9.102C2.767 10.306 3.954 11.402 5.192 11.596C5.316 11.627 5.458 11.638 5.597 11.652C5.725 11.662 5.856 11.676 5.977 11.7C5.15547 12.3345 4.406 13.0571 3.742 13.855C2.836 14.921 2.587 16.682 3.164 17.948C3.663 19.214 4.929 20.245 6.244 20.453C6.503 20.501 6.784 20.525 7.101 20.525C7.558 20.525 8.018 20.477 8.458 20.429C8.565 20.419 8.676 20.404 8.779 20.394C8.824 21.397 8.859 22.02 9.416 23.442C9.45 23.532 9.426 23.684 9.309 23.788C9.212 23.874 8.402 24.21 8.17 24.258C8.07187 24.2742 7.97244 24.2812 7.873 24.279H7.541C7.431 24.279 7.288 24.279 7.15 24.299C6.641 24.372 6.389 24.801 6.209 25.217C6.099 25.469 6.019 25.691 5.949 25.881C5.776 26.355 5.669 26.649 5.337 26.829C5.337 26.829 4.645 26.213 4.527 26.129C4.36693 26.0346 4.18484 25.9839 3.999 25.982C3.563 25.982 3.176 26.259 2.802 26.525C2.68876 26.6096 2.57199 26.6893 2.452 26.764C2.138 26.961 1.902 27.297 1.834 27.646C1.325 27.902 0.827 28.21 0.595 28.719C0.485 28.937 0.464 29.203 0.443 29.459C0.434537 29.5806 0.420523 29.7017 0.401 29.822C0.361365 29.9033 0.316262 29.9818 0.266 30.057C0.125 30.251 0 30.538 0 30.715C0 31.088 0.138 31.23 0.346 31.407C0.599 31.587 1.287 31.797 1.778 31.919C1.81384 31.9288 1.85086 31.9335 1.888 31.933C2.038 31.933 2.158 31.856 2.273 31.783C2.328 31.749 2.383 31.711 2.446 31.683C2.851 31.78 3.449 31.905 4.03 31.905C4.33133 31.9043 4.60467 31.871 4.85 31.805C5.442 31.645 5.947 30.843 6.22 30.41C6.286 30.306 6.352 30.203 6.369 30.189C6.38601 30.1805 6.40509 30.177 6.424 30.179C6.514 30.179 6.66 30.22 6.815 30.265C6.995 30.317 7.203 30.375 7.39 30.393C8.057 30.452 8.694 30.037 9.106 29.729C9.275 29.604 9.458 29.428 9.638 29.259C9.838 29.068 10.043 28.871 10.22 28.753C10.4537 28.6586 10.7039 28.6117 10.956 28.615C11.046 28.6143 11.1453 28.619 11.254 28.629C11.734 28.729 12.364 28.847 12.977 28.847C13.589 28.847 14.053 28.743 14.457 28.532L14.831 28.338C15.236 28.131 15.651 27.92 16.045 27.705C16.806 27.293 17.111 26.615 17.36 26.072L17.422 25.934C17.568 25.619 17.789 25.048 17.848 24.906C17.9647 24.9227 18.087 24.9307 18.215 24.93C18.626 24.93 19.031 24.844 19.422 24.76C19.806 24.678 20.207 24.595 20.608 24.595C20.82 24.595 21.013 24.615 21.207 24.664C21.927 24.806 22.875 24.969 23.84 24.969C24.34 24.9735 24.8388 24.9212 25.327 24.813C25.438 24.92 25.563 25.013 25.684 25.103C25.804 25.193 25.915 25.276 26.019 25.377C25.908 25.3967 25.7963 25.4117 25.684 25.422C25.348 25.46 24.999 25.498 24.743 25.772C24.4662 25.66 24.1695 25.6056 23.871 25.612C23.5324 25.6199 23.1949 25.6523 22.861 25.709C22.7257 25.729 22.594 25.7473 22.466 25.764C21.951 25.826 21.598 26.024 21.415 26.359C21.304 26.577 21.221 26.806 21.401 27.179L22.414 28.86C22.539 29.078 22.746 29.255 22.888 29.265C22.964 29.272 23.065 29.265 23.175 29.255C23.263 29.247 23.3507 29.2423 23.438 29.241C23.6007 29.241 23.699 29.2687 23.733 29.324C23.7837 29.4027 23.833 29.481 23.881 29.559C24.089 29.885 24.303 30.224 24.628 30.511C25.12 30.94 25.912 31.119 26.656 30.947C26.936 30.8437 27.216 30.742 27.496 30.642C28.372 30.327 29.278 30.002 30.156 29.629L31.613 29.421C32.094 29.327 32.461 28.677 32.582 28.407L32.613 28.345C32.613 28.345 33.053 27.473 33.187 26.944C33.194 27.034 33.194 27.154 33.194 27.321C33.194 28.144 33.34 29.186 34.744 29.131C35.526 29.099 36.564 28.636 37.304 28.501C38.079 28.369 39.089 28.698 39.84 28.331C40.57 28.034 40.989 27.466 41.106 27.584C41.5906 28.0563 42.1659 28.4253 42.7973 28.6687C43.4286 28.9121 44.1028 29.0248 44.779 29C45.828 28.966 45.942 28.125 45.209 27.744C46.64 27.91 47.063 27.136 46.796 26.886C46.626 26.727 46.526 26.648 45.983 26.343V26.351ZM33.124 25.569C32.584 24.839 32.232 24.321 32.18 23.653C32.868 23.573 33.498 23.345 34.522 23.29C34.255 24.082 33.339 24.459 33.121 25.566L33.124 25.569ZM93.975 30.216C93.926 30.119 93.878 30.026 93.85 29.956C93.805 29.801 93.798 29.638 93.788 29.465C93.778 29.275 93.768 29.077 93.708 28.891C93.546 28.351 92.968 28.015 92.501 27.825C92.484 27.621 92.446 27.4 92.256 27.265C91.449 26.69 91.027 26.365 90.799 26.192C90.664 26.088 90.616 26.05 90.588 26.04C90.4924 25.9955 90.3885 25.9716 90.283 25.97C89.927 25.97 89.643 26.254 89.367 26.524L89.177 26.711C89.17 26.718 89.167 26.718 89.156 26.718C89.069 26.718 88.889 26.452 88.844 26.331C88.764 26.116 88.703 25.912 88.64 25.715C88.5367 25.3481 88.4036 24.9902 88.242 24.645C87.938 24.04 87.288 24.03 86.713 24.02H86.551C86.288 24.02 85.941 23.982 85.879 23.808C85.817 23.636 85.945 23.31 86.025 23.072C86.08 22.906 86.132 22.75 86.149 22.598C86.295 21.948 86.305 21.082 86.177 20.38C86.322 20.384 86.467 20.4 86.62 20.418C86.7507 20.436 86.8867 20.4487 87.028 20.456H87.153C88.018 20.456 88.748 20.286 89.384 19.941C90.667 19.169 91.453 17.924 91.484 16.599C91.439 15.907 91.276 15.336 90.924 14.63C90.45 13.696 89.661 12.776 88.509 11.821C89.176 11.683 89.73 11.521 90.242 11.198C91.287 10.534 91.75 9.33 91.546 7.805C91.491 7.445 91.352 6.822 91.048 6.66C91.0043 6.6368 90.9555 6.62478 90.906 6.625C90.685 6.625 90.47 6.864 90.28 7.075C90.21 7.155 90.142 7.227 90.083 7.279C89.727 7.597 89.308 7.68 88.869 7.767C88.637 7.812 88.399 7.86 88.173 7.943C87.121 8.286 85.333 9.067 85.173 10.489C85.018 11.894 86.018 12.839 86.987 13.752C87.308 14.056 87.617 14.343 87.879 14.648C88.439 15.295 88.917 15.938 88.792 16.665C88.748 16.914 88.395 17.295 88.059 17.447C87.8017 17.5363 87.5377 17.581 87.267 17.581C86.371 17.581 85.509 17.091 84.752 16.654L84.644 16.592C82.887 15.374 81.071 14.112 78.819 13.872C77.961 13.707 77.217 13.188 76.494 12.682C76.328 12.565 76.1607 12.45 75.992 12.337C75.2344 11.8922 74.3999 11.594 73.532 11.458C73.082 11.399 72.726 11.105 72.349 10.798C72.1539 10.6288 71.9459 10.475 71.727 10.338C70.8438 9.76805 69.8593 9.37322 68.827 9.175C68.7251 9.14419 68.6216 9.11882 68.517 9.099C68.247 9.043 67.966 8.981 67.772 8.777C67.475 8.427 67.066 7.977 66.572 7.625C65.911 7.182 64.884 6.711 63.988 6.711C63.8068 6.70858 63.6262 6.73078 63.451 6.777C62.953 6.902 62.566 7.192 62.157 7.5L62.002 7.614C61.182 8.254 60.092 9.134 59.234 9.746C56.674 11.569 55.712 12.368 54.443 13.756C51.177 17.322 52.17 22.66 49.347 25.753C48.617 26.555 48.413 26.659 48.147 26.881C47.817 27.157 47.741 28.628 49.879 27.908C48.904 28.742 49.519 29.129 50.159 29.143C51.288 29.167 52.533 28.776 53.754 27.476C54.602 28.696 56.079 28.133 56.847 28.196C57.567 28.254 58.892 29.036 59.663 28.991C60.839 28.918 61.272 27.742 61.154 27.088C61.344 27.088 61.396 27.043 61.448 26.95C61.587 27.631 61.68 28.098 61.812 28.44C61.8233 28.4653 61.838 28.4953 61.856 28.53V28.538C61.94 28.686 62.113 29.015 62.286 29.174C62.486 29.416 62.787 29.448 63.026 29.448C63.123 29.448 63.22 29.441 63.313 29.438C63.4197 29.4307 63.5233 29.427 63.624 29.427C63.7132 29.4935 63.7987 29.565 63.88 29.641C64.07 29.807 64.264 29.981 64.503 30.046C65.617 30.333 66.541 30.589 67.437 30.904C67.62 30.963 67.9 31.039 68.18 31.039C68.2713 31.039 68.359 31.031 68.443 31.015C69.295 30.831 70.053 30.102 70.239 29.275C70.253 29.147 70.346 29.136 70.505 29.129C70.62 29.126 70.751 29.119 70.824 29.036C71.287 28.666 71.571 28.157 71.848 27.669C71.9053 27.565 71.9653 27.4603 72.028 27.355C72.0994 27.2317 72.1397 27.093 72.1457 26.9507C72.1516 26.8084 72.1229 26.6668 72.062 26.538C71.972 26.358 71.8093 26.228 71.574 26.148C71.131 26.023 70.637 26.012 70.211 26.012H69.741C69.519 26.012 69.263 26.012 69.014 25.988L68.834 25.791C68.703 25.673 68.537 25.646 68.374 25.618L68.257 25.598L68.661 25.282C68.823 25.2867 68.9833 25.289 69.142 25.289C70.083 25.289 70.948 25.206 71.72 25.044C72.4067 24.8789 73.1098 24.7917 73.816 24.784C73.91 24.7827 74.0057 24.785 74.103 24.791C74.2183 24.7977 74.3337 24.8057 74.449 24.815C74.871 24.843 75.304 24.875 75.736 24.875C76.307 24.875 76.771 24.822 77.186 24.712C77.238 24.919 77.279 25.123 77.317 25.324C77.469 26.078 77.611 26.791 78.192 27.41C78.542 27.856 78.998 28.112 79.442 28.365C79.67 28.493 79.902 28.638 80.126 28.787C80.424 28.939 80.663 28.963 81.005 28.963C81.482 28.963 82.091 28.759 82.437 28.759C83.88 28.759 84.994 29.541 86.201 30.485C86.416 30.627 86.679 30.7 86.98 30.7C87.346 30.7 87.758 30.59 88.118 30.395L88.146 30.437C88.366 30.748 88.599 31.074 88.91 31.327C89.356 31.731 89.934 31.787 90.44 31.787C90.609 31.787 90.785 31.779 90.955 31.772C91.197 31.762 91.442 31.752 91.678 31.762C91.771 31.893 91.951 31.994 92.093 31.987C92.235 31.98 93.795 31.471 93.878 31.444C93.961 31.417 94.078 31.347 94.078 31.347C94.456 31.153 94.182 30.607 93.982 30.205L93.975 30.216ZM61.669 25.62C61.292 24.87 60.997 24.195 60.53 23.49C61.6 23.742 62.82 23.62 62.82 23.62C62.475 24.112 62.08 24.814 61.669 25.62Z" fill="#FFCC00"/>
<path d="M68.3219 26.362C68.2659 26.292 68.1559 26.282 68.0929 26.282C68.0663 26.2813 68.0396 26.2827 68.0129 26.286C67.8199 26.31 67.6429 26.32 67.4599 26.32C67.3655 26.3196 67.2712 26.3172 67.1769 26.313C67.0999 26.313 67.0309 26.306 66.9619 26.306C66.8479 26.306 66.7549 26.313 66.6619 26.331H66.6399L66.6299 26.351C66.6159 26.379 66.2599 27.001 66.3079 27.396C66.3599 27.822 66.7919 27.908 67.1209 27.974C67.2389 27.998 67.3739 28.022 67.5119 28.022C67.7466 28.0213 67.9033 27.943 67.9819 27.787C68.1534 27.3663 68.2765 26.9275 68.3489 26.479C68.3545 26.4577 68.355 26.4353 68.3503 26.4138C68.3456 26.3922 68.3359 26.3721 68.3219 26.355V26.362ZM91.8249 27.766C91.6209 27.472 91.2649 27.236 90.9809 27.046C90.8672 26.9763 90.7583 26.8992 90.6549 26.815L90.5969 26.773C90.5322 26.7178 90.45 26.6874 90.3649 26.687C90.0429 26.687 89.6939 27.074 89.6869 27.205C89.6769 27.399 89.9529 27.745 90.3129 28.175L90.3889 28.268C90.5722 28.486 90.7682 28.6023 90.9769 28.617C91.1879 28.617 91.3539 28.547 91.5309 28.382C91.6619 28.261 91.9529 27.956 91.8209 27.769L91.8249 27.766ZM93.3309 30.271C93.2813 30.1732 93.2398 30.0716 93.2069 29.967C93.177 29.8205 93.1536 29.6726 93.1369 29.524C93.1069 29.288 93.0789 29.064 93.0059 28.891C92.9537 28.7843 92.8732 28.694 92.7733 28.6298C92.6733 28.5656 92.5577 28.5301 92.4389 28.527C92.3568 28.526 92.2758 28.5452 92.2029 28.583C91.8509 28.759 91.6389 28.95 91.6979 29.347C91.8919 29.925 91.9879 30.344 92.1169 30.914C92.1309 31.001 92.1899 31.288 92.3269 31.288C92.3383 31.288 92.3489 31.287 92.3589 31.285L93.3729 30.953C93.3965 30.946 93.4183 30.934 93.4367 30.9177C93.4552 30.9015 93.4699 30.8815 93.4799 30.859C93.5389 30.724 93.4319 30.496 93.3279 30.274L93.3309 30.271Z" fill="#D2003C"/>
<path d="M91.5389 31.08C91.4587 30.4571 91.2858 29.8497 91.0259 29.278L91.0129 29.251H90.9819C90.3929 29.288 90.0299 28.811 89.6769 28.354C89.5599 28.202 89.4519 28.06 89.3349 27.936C89.1602 27.7405 88.9717 27.5577 88.7709 27.389C88.5629 27.209 88.3869 27.05 88.3179 26.909C88.2349 26.735 88.1449 26.403 88.0579 26.081C87.9959 25.853 87.9379 25.635 87.8819 25.486L87.8469 25.393C87.7399 25.109 87.6119 24.756 87.2449 24.698C87.0619 24.667 86.8609 24.66 86.6709 24.653C86.1409 24.632 85.6089 24.539 85.3359 24.158C85.0829 23.808 85.1859 23.483 85.3289 23.138C85.3909 22.985 85.4359 22.858 85.4709 22.712C85.6609 22.072 85.7269 21.276 85.5809 20.719C85.5574 20.6291 85.5297 20.5403 85.4979 20.453C85.4219 20.221 85.3319 19.868 85.3879 19.761C85.4459 19.654 85.5049 19.636 85.6119 19.636C85.7059 19.636 85.8129 19.668 85.9129 19.696C85.9859 19.716 86.0409 19.726 86.1109 19.744C86.3729 19.806 86.7679 19.878 87.1279 19.878C87.7229 19.878 88.3479 19.75 88.8879 19.518C89.9089 19.024 90.9159 17.907 90.8639 16.523C90.7289 15.122 89.8639 13.769 88.2139 12.382C88.1759 12.347 88.1309 12.312 88.0889 12.278C87.8749 12.101 87.6149 11.877 87.6089 11.679C87.6029 11.481 88.1169 11.361 88.4389 11.285C88.5143 11.269 88.5809 11.253 88.6389 11.237L88.7219 11.216C89.1339 11.109 89.5559 10.998 89.9059 10.756C91.0819 9.963 91.0399 8.569 90.9059 7.801C90.8999 7.781 90.8939 7.757 90.8879 7.729C90.8679 7.629 90.8399 7.504 90.7459 7.504C90.7119 7.50626 90.6799 7.52084 90.6559 7.545L90.5489 7.645C90.4139 7.774 90.2649 7.919 90.0919 8.015C89.7189 8.237 89.2689 8.331 88.8369 8.421C88.5599 8.479 88.2729 8.538 88.0069 8.631C86.8369 9.036 86.1109 9.628 85.8509 10.392C85.7159 10.79 85.7889 11.292 86.0479 11.776C86.4319 12.382 86.9819 12.911 87.5179 13.423C88.3629 14.233 89.2339 15.066 89.4349 16.201C89.5449 16.861 89.2759 17.419 88.6149 17.9C88.2689 18.107 87.8259 18.218 87.3349 18.218C86.7125 18.2126 86.1005 18.0583 85.5499 17.768C84.8649 17.426 84.2039 16.983 83.5639 16.554C82.6019 15.911 81.6059 15.246 80.5029 14.894C80.0249 14.675 79.4929 14.568 78.9799 14.464C78.2499 14.316 77.4959 14.164 76.8899 13.689C76.6819 13.5519 76.4778 13.4088 76.2779 13.26C75.7279 12.863 75.1609 12.45 74.5179 12.288C74.2779 12.205 74.0439 12.174 73.8149 12.14C73.4619 12.088 73.1339 12.043 72.8289 11.825L72.4139 11.524C71.9019 11.15 71.3729 10.763 70.8439 10.496C69.9339 10.043 68.9649 9.808 67.8819 9.573C67.5359 9.49 67.3219 9.23 67.0929 8.953C66.9409 8.767 66.7819 8.576 66.5809 8.441C65.7479 7.781 64.9899 7.338 64.0139 7.338C63.9226 7.338 63.8316 7.34133 63.7409 7.348C63.2289 7.383 62.7309 7.77 62.3989 8.061C61.4269 8.911 60.3789 9.669 59.3689 10.403C57.8589 11.493 56.3029 12.62 54.9709 14.077C53.6599 15.43 53.1859 17.117 52.7219 18.754C52.6529 18.996 52.5879 19.235 52.5149 19.477C52.3899 19.924 52.2759 20.384 52.1649 20.827C51.5639 23.237 50.9449 25.646 48.5359 27.209C48.3769 27.313 48.4329 27.514 48.5809 27.569C48.6439 27.593 49.6539 27.932 50.6609 26.922C51.2689 26.168 51.6079 25.472 52.3349 24.694C52.3589 24.67 52.4419 24.604 52.5109 24.611C52.5599 24.635 52.5739 24.66 52.5599 24.746C52.4659 25.058 52.2759 25.331 52.0899 25.597C51.8999 25.87 51.7049 26.151 51.6079 26.472C51.3769 27.164 50.7329 27.725 50.1619 28.216C50.1619 28.216 50.0719 28.275 50.0209 28.341C49.9689 28.406 49.9689 28.434 49.9689 28.434C49.9509 28.586 50.0719 28.68 50.3179 28.69C51.6679 28.69 52.6289 27.732 53.5559 26.801C53.5762 26.7805 53.6006 26.7646 53.6275 26.7545C53.6544 26.7443 53.6832 26.74 53.7119 26.742C53.7627 26.7405 53.8132 26.7486 53.8609 26.766C53.9229 26.801 54.0649 26.94 54.1749 27.036C54.4799 27.306 54.7909 27.586 55.1989 27.669H55.2129C55.7049 27.6 56.1469 27.545 56.6039 27.545C56.7373 27.5443 56.8596 27.549 56.9709 27.559C57.4619 27.707 57.9569 27.894 58.4309 28.071C58.7659 28.199 59.1119 28.327 59.4609 28.444H59.4759C59.9259 28.427 60.2459 28.009 60.4819 27.638C60.5919 27.375 60.5409 27.119 60.4889 26.87C60.4579 26.715 60.4269 26.57 60.4369 26.427C60.5199 26.386 60.6339 26.393 60.7559 26.41C60.8629 26.427 61.0179 26.41 61.0699 26.403C61.1879 26.386 61.3119 26.251 61.2779 26.075C61.1879 25.625 60.9629 25.348 60.7379 25.002C60.5409 24.708 60.3539 24.432 60.2609 24.12C60.1119 23.708 59.7969 23.366 59.4929 23.034C59.1399 22.65 58.8079 22.286 58.7069 21.826C58.7069 21.826 58.6769 21.729 58.7109 21.691C58.7449 21.653 58.8389 21.698 58.8389 21.698C59.0009 21.816 59.1639 21.948 59.3189 22.075C59.8319 22.491 60.3609 22.923 61.0049 23.02C61.6029 23.079 62.2599 23.155 62.8999 23.1C63.0699 23.072 63.1559 22.923 63.1149 22.781C62.8589 22.241 62.5959 21.661 62.4369 21.027C62.3019 20.55 62.0009 19.294 62.3089 18.346C62.3399 18.253 62.4019 18.221 62.4579 18.221C62.4633 18.2203 62.4713 18.2217 62.4819 18.225C62.5859 18.249 62.6549 18.374 62.6689 18.47L62.6789 18.595C62.7689 19.885 62.8549 21.103 63.6439 22.141C63.8549 22.477 64.1559 22.653 64.4469 22.826C64.6469 22.944 64.8789 23.051 65.0249 23.238C65.1909 23.448 65.2179 23.808 65.1049 24.026L64.1349 25.456C63.9069 25.781 63.6849 26.13 63.6059 26.486C63.5339 26.846 63.5649 27.196 63.5959 27.535L63.6029 27.617C63.5718 27.5978 63.5466 27.5705 63.5299 27.538C63.1399 26.832 63.0599 26.234 63.2599 25.774C63.3879 25.476 64.1769 24.359 64.4049 23.992C64.4779 23.874 64.5369 23.757 64.4749 23.677C64.3979 23.577 63.8069 23.324 63.6509 23.324C63.6409 23.3233 63.6306 23.3247 63.6199 23.328C63.4819 23.366 63.3919 23.494 63.3119 23.608L63.2569 23.684L62.0629 25.85L62.0349 25.93C61.9659 26.147 61.9049 26.334 61.9659 26.583C62.0319 26.908 62.1319 27.258 62.2079 27.513L62.2709 27.725C62.3779 28.102 62.4779 28.455 62.6439 28.652C62.6938 28.7121 62.757 28.7597 62.8286 28.7909C62.9001 28.8222 62.978 28.8362 63.0559 28.832C63.1459 28.832 63.2389 28.818 63.3289 28.804C63.4789 28.78 63.6409 28.763 63.7619 28.794C63.9419 28.839 64.0659 28.974 64.1979 29.112C64.3289 29.254 64.4639 29.399 64.6649 29.458C65.0349 29.583 65.4219 29.683 65.7959 29.78C66.2939 29.911 66.8099 30.046 67.3009 30.236C67.5779 30.326 67.8749 30.409 68.1619 30.409C68.4809 30.409 68.6779 30.319 68.9549 30.095C69.3419 29.78 69.4699 29.468 69.5669 29.019C69.6429 28.607 69.7809 28.579 70.0789 28.562C70.2239 28.555 70.2449 28.562 70.3869 28.514C70.5359 28.465 70.9679 27.936 71.1929 27.504C71.2563 27.3853 71.3196 27.279 71.3829 27.185C71.4427 27.1064 71.4757 27.0107 71.4769 26.912C71.4769 26.697 71.2969 26.632 71.1829 26.628H71.1059C71.1059 26.628 69.8329 26.618 69.4839 26.628C68.9619 26.656 68.7339 27.158 68.5499 27.604C68.4769 27.777 68.4109 27.936 68.3249 28.078C68.1869 28.327 67.9169 28.479 67.5849 28.472C67.4879 28.472 67.2729 28.413 67.1629 28.386C66.4739 28.216 65.7649 28.043 65.4739 27.358C65.4469 27.241 65.4019 26.998 65.5739 26.794C65.9409 26.369 66.4259 25.829 66.9239 25.442C67.6159 25.296 68.3079 24.784 68.6879 24.141C68.7679 24.03 68.8089 23.899 68.8509 23.774C68.9129 23.58 68.9709 23.397 69.1479 23.283C69.2589 23.227 69.3489 23.245 69.3729 23.342C69.4389 23.702 69.3039 24.047 69.1689 24.382C69.1387 24.4567 69.1101 24.5321 69.0829 24.608L69.0619 24.663L69.1209 24.67C69.3123 24.688 69.5069 24.6973 69.7049 24.698C70.4149 24.698 71.0889 24.577 71.7429 24.459C72.3899 24.341 73.0609 24.22 73.7529 24.22C73.8263 24.2193 73.9013 24.2207 73.9779 24.224C74.2859 24.224 74.5829 24.251 74.8739 24.276C75.1579 24.3 75.4519 24.328 75.7459 24.328C75.8489 24.328 75.9459 24.328 76.0429 24.318C76.9289 24.276 77.5729 23.874 77.7659 23.238C77.9489 22.695 77.9289 21.758 77.7069 20.449C77.6969 20.387 77.6899 20.346 77.6899 20.339V20.315C77.6899 20.266 77.6899 20.215 77.7559 20.183C77.8389 20.138 77.9259 20.183 77.9659 20.29C78.3019 21.231 78.4959 22.314 78.5999 23.058C78.7139 23.781 79.0149 24.514 79.5269 25.296C80.1599 26.241 81.2049 26.784 82.3909 26.784C82.6679 26.784 82.9449 26.732 83.2179 26.697C83.4079 26.673 83.4809 26.683 83.6089 26.683C85.1179 26.683 86.4289 27.337 87.4079 28.573C87.4079 28.573 87.4249 28.597 87.4249 28.631C87.4249 28.683 87.3489 28.735 87.2829 28.707L87.1549 28.607C86.3049 27.947 85.4249 27.265 84.3219 27.13C84.1162 27.0946 83.9077 27.0772 83.6989 27.078C83.3865 27.0827 83.0746 27.1058 82.7649 27.147C82.4609 27.182 82.1769 27.217 81.8829 27.217C81.541 27.2233 81.2012 27.1622 80.8829 27.037C79.6129 26.617 78.5759 25.157 78.2429 24.251C78.2309 24.2255 78.212 24.204 78.1883 24.1888C78.1646 24.1735 78.1371 24.1653 78.1089 24.165C78.0743 24.1643 78.0383 24.176 78.0009 24.2C77.8529 24.293 77.8279 24.341 77.8079 24.431C77.7869 24.507 77.9109 25.158 77.9669 25.438C78.1329 26.13 78.3819 27.175 79.2879 27.562C79.3999 27.6293 79.5119 27.6997 79.6239 27.773C80.0769 28.063 80.5439 28.365 81.0799 28.365C81.2086 28.365 81.3353 28.3477 81.4599 28.313C81.7833 28.2423 82.1109 28.2067 82.4429 28.206C83.4879 28.206 84.5499 28.562 85.4429 29.212C85.5909 29.299 85.7329 29.416 85.8679 29.531C86.0619 29.693 86.2589 29.859 86.4949 29.946C86.6429 30.006 86.8019 30.036 86.9719 30.036C87.3769 30.036 87.4799 29.915 87.7679 29.773C87.8734 29.7207 87.9892 29.6924 88.1069 29.69C88.4319 29.69 88.6119 29.942 88.8399 30.264C88.9779 30.458 89.1339 30.676 89.3449 30.866C89.6389 31.153 90.0469 31.188 90.3689 31.188C90.5459 31.188 90.7219 31.174 90.8949 31.164C91.0609 31.154 91.2619 31.146 91.3689 31.136C91.4729 31.122 91.5319 31.108 91.5319 31.108V31.067L91.5389 31.08ZM57.1639 26.255C57.1059 26.362 56.9639 26.424 56.7769 26.424C56.6216 26.4272 56.4687 26.3852 56.3369 26.303C56.0949 26.13 55.9539 25.843 55.9329 25.466C55.9289 25.379 55.9229 25.289 56.0399 25.203C56.0989 25.168 56.1339 25.168 56.2029 25.168C56.4339 25.168 56.8049 25.317 57.0019 25.556C57.0159 25.573 57.3239 25.981 57.1649 26.258L57.1639 26.255ZM57.4969 20.93C57.4099 21.041 57.2789 21.124 57.1509 21.062C57.0299 21.02 56.9219 20.864 56.8569 20.747C56.7739 20.598 56.7039 20.47 56.5069 20.484H56.4759C56.3029 20.498 56.1719 20.584 56.0329 20.691C55.9639 20.747 55.6829 20.955 55.6149 21.013C55.2379 21.332 54.8569 21.66 54.7669 22.106C54.748 22.1856 54.7306 22.2657 54.7149 22.346C54.6869 22.501 54.6599 22.663 54.5279 22.746H54.5179C54.5002 22.7567 54.4796 22.7616 54.4589 22.76C54.3992 22.7579 54.3419 22.7361 54.2959 22.698C54.2723 22.6801 54.253 22.6572 54.2393 22.6309C54.2257 22.6046 54.218 22.5756 54.2169 22.546C54.1509 21.778 54.4109 21.086 54.9499 20.595C55.2999 20.308 55.5799 19.948 55.8529 19.598C55.9849 19.428 56.1229 19.252 56.2649 19.09C56.3719 18.983 56.5489 19.073 56.8389 19.39C56.9599 19.522 57.3409 20.17 57.5139 20.595C57.534 20.648 57.5426 20.7046 57.5392 20.7611C57.5357 20.8177 57.5203 20.8729 57.4939 20.923L57.4969 20.93ZM63.8519 12.001C63.7069 12.14 63.5539 12.278 63.4019 12.42C62.8619 12.911 62.3049 13.42 61.9389 13.994C61.7659 14.229 61.6379 14.499 61.5129 14.762C61.4989 14.79 61.4679 14.848 61.4089 14.848C61.3784 14.846 61.3498 14.8324 61.3289 14.81C61.2259 14.706 61.3119 13.983 61.4469 13.62C61.7449 12.818 62.4189 11.977 63.3019 11.316C63.3998 11.256 63.5121 11.2238 63.6269 11.223C63.7929 11.223 63.9209 11.299 63.9729 11.43C64.0829 11.607 64.0429 11.814 63.8519 12.001ZM27.8019 27.206C27.7709 27.154 27.7422 27.1006 27.7159 27.046C27.6259 26.877 27.5779 26.697 27.5329 26.541C27.4429 26.227 27.3669 25.953 27.0239 26.001C26.5399 26.071 26.0689 26.102 25.5439 26.102C25.5359 26.102 25.3739 26.102 25.3219 26.216C25.2629 26.348 25.3949 26.472 25.5369 26.6C25.6159 26.673 25.6989 26.749 25.7539 26.832C25.8509 26.974 25.9439 27.178 26.0339 27.375C26.1759 27.69 26.3009 27.96 26.4429 28.005C26.5079 28.0236 26.5753 28.0327 26.6429 28.032C26.9729 28.032 27.4249 27.856 27.7539 27.6C27.9369 27.444 27.8789 27.34 27.7959 27.202L27.8019 27.206ZM4.14293 26.715L4.11593 26.694C4.01593 26.614 3.83593 26.624 3.71393 26.708C3.63093 26.766 3.54393 26.822 3.46193 26.878C3.19193 27.057 2.91193 27.24 2.61793 27.489C2.50993 27.579 2.45093 27.749 2.44093 27.88C2.43093 27.984 2.45093 28.067 2.49293 28.12C2.51693 28.147 2.73193 28.385 2.77693 28.424C2.87131 28.508 2.9926 28.5555 3.11893 28.558C3.22019 28.5556 3.3195 28.5296 3.40893 28.482C3.93193 28.22 4.47193 27.251 4.49293 27.195C4.54793 27.04 4.37193 26.898 4.14293 26.715ZM2.41993 29.012C2.31293 28.86 1.95693 28.441 1.75593 28.441C1.73893 28.441 1.72093 28.441 1.70793 28.451C1.43093 28.565 1.10893 28.925 1.09193 29.14C1.02193 30.077 0.994927 30.177 0.738927 30.465C0.665927 30.545 0.617927 30.731 0.700927 30.811C0.772927 30.883 1.69393 31.174 1.79693 31.174H1.81793C1.90093 31.146 1.96993 30.935 2.15793 30.288C2.25793 29.938 2.37193 29.544 2.49993 29.188C2.50693 29.164 2.50993 29.129 2.42693 29.012H2.41993Z" fill="#D2003C"/>
<path d="M30.642 28.95C31.019 28.922 31.41 28.894 31.687 28.6C32.037 28.091 32.337 27.58 32.601 27.04C32.836 26.555 32.839 26.081 32.608 25.711C31.912 24.597 31.788 24.303 31.504 23.546L31.497 23.525L31.477 23.518C31.3947 23.4925 31.3137 23.4635 31.234 23.431C31.064 23.366 30.8839 23.293 30.681 23.293H30.653C30.4139 23.3 30.252 23.376 30.186 23.508L30.176 23.528L31.438 26.019C31.518 26.213 31.611 26.41 31.563 26.701C31.514 26.991 30.895 27.967 30.708 28.091C30.6767 28.1168 30.6383 28.1325 30.598 28.136C30.584 28.136 30.518 28.123 30.559 27.977C30.677 27.573 30.826 26.621 30.784 26.317C30.739 25.964 29.681 24.213 29.636 24.137L29.615 24.107C29.452 23.84 29.283 23.563 29.297 23.241C29.297 23.092 29.4349 22.989 29.535 22.951C29.719 22.881 29.895 22.854 30.082 22.812C30.532 22.712 30.995 22.612 31.162 22.359C31.667 21.591 31.9669 20.789 32.1679 19.678C32.1779 19.629 32.213 19.536 32.282 19.536C32.324 19.536 32.365 19.55 32.382 19.646C32.4733 20.1713 32.4593 20.7096 32.3407 21.2294C32.2221 21.7493 32.0012 22.2403 31.691 22.674C31.6471 22.7466 31.6312 22.8325 31.646 22.916C31.66 23.006 31.76 23.079 31.76 23.079C32.002 23.245 32.888 23.148 33.531 22.812C34.022 22.822 34.483 22.736 34.9319 22.653C35.0746 22.6257 35.2153 22.6003 35.354 22.577C35.3989 22.601 35.434 22.643 35.441 22.674C35.064 23.099 34.835 23.577 34.718 24.175C34.6107 24.2836 34.5 24.3886 34.386 24.49C33.974 24.867 33.531 25.29 33.51 25.829C33.51 25.829 33.497 26.023 33.708 26.036C33.773 26.04 33.8489 26.006 33.9179 25.978C33.9857 25.9429 34.0606 25.9237 34.137 25.922C34.1692 25.9266 34.1988 25.9423 34.2207 25.9664C34.2426 25.9905 34.2554 26.0215 34.257 26.054L33.7869 26.742C33.6109 27.029 33.687 27.334 33.756 27.632C33.808 27.794 33.784 27.922 33.829 28.067C33.946 28.41 34.365 28.572 34.697 28.572C35.309 28.545 35.867 28.344 36.406 28.15C36.503 28.116 36.596 28.081 36.6959 28.047C37.2879 27.791 38.077 27.739 39.0149 27.891C39.769 27.842 40.336 27.344 40.886 26.86C41.1213 26.8667 41.3636 27.005 41.6129 27.275C42.4289 28.15 43.429 28.575 44.671 28.575H44.813L44.937 28.565C45.0649 28.535 45.1 28.472 45.107 28.392C45.117 28.296 45.041 28.199 44.903 28.133L44.207 27.763C43.65 27.41 43.045 26.984 42.879 26.423C42.699 25.825 42.3629 25.217 42.111 24.812C42.0596 24.7294 42.0052 24.6487 41.948 24.57C41.851 24.428 41.748 24.282 41.678 24.13C42.436 24.4 42.861 24.96 43.374 25.895C43.754 26.59 44.7439 27.337 45.681 27.337C45.806 27.337 45.923 27.323 46.041 27.299C46.1409 27.279 46.207 27.213 46.221 27.126C46.2309 27.05 46.221 26.977 46.138 26.932L45.57 26.649C44.896 26.254 44.5079 25.604 44.131 24.971C43.982 24.721 43.831 24.466 43.664 24.234C43.557 24.074 43.3699 23.909 43.208 23.764C43.066 23.636 42.931 23.514 42.906 23.449C42.291 21.767 41.6199 19.792 41.457 17.595C41.433 17.26 41.1969 16.523 40.917 16.045C40.042 14.62 37.952 12.181 37.838 12.06C37.7659 11.9844 37.6923 11.9103 37.617 11.838L37.561 11.783L33.797 8.656C33.05 8.13 32.8219 8.036 32.2789 7.843C31.8985 7.71214 31.4983 7.64786 31.096 7.653C30.563 7.653 30.03 7.756 29.594 7.943C29.294 8.103 29.003 8.289 28.719 8.469C28.239 8.777 27.739 9.095 27.2 9.275C26.778 9.465 26.3249 9.604 25.886 9.739C25.031 10.001 24.149 10.275 23.45 10.919C23.246 11.105 23.08 11.261 22.941 11.396C22.295 12.005 22.229 12.07 21.7 12.07C20.475 12.07 19.607 12.371 18.7 13.108C17.984 13.758 17.275 14.368 16.448 14.655C16.078 14.783 15.666 14.831 15.23 14.873C14.604 14.928 14.507 14.935 13.916 15.077C13.023 15.281 12.076 16.017 11.276 16.64C11.013 16.844 10.664 17.114 10.498 17.222C10.411 17.277 10.308 17.342 10.224 17.392C9.22795 17.972 8.28995 18.522 7.08595 18.522H6.99595C6.09695 18.457 5.28095 17.837 5.00695 17.017C4.75495 16.094 5.02495 15.146 5.75395 14.419C6.09995 14.073 6.49395 13.738 6.87895 13.413C7.49495 12.89 8.07595 12.395 8.48095 11.853C8.95095 11.223 8.89895 10.161 8.36995 9.583C7.84395 9.005 6.66795 8.718 6.22495 8.611L6.14895 8.593C6.10395 8.583 6.02795 8.573 5.98595 8.563C5.70595 8.507 5.43595 8.469 5.16295 8.403C4.46395 8.213 3.92095 7.67 3.30195 7.338C3.06295 7.704 2.98295 8.102 3.01495 8.545C3.13195 9.479 3.91095 10.448 4.77495 10.842C4.81295 10.856 4.84795 10.873 4.88595 10.884C5.15895 11.001 5.44595 11.019 5.71595 11.019H6.06595C6.23195 11.019 6.43295 11.019 6.61195 11.064C6.70702 11.0914 6.79206 11.146 6.85669 11.2209C6.92132 11.2958 6.96276 11.3879 6.97595 11.486C6.98995 11.61 6.93395 11.707 6.77595 11.828L6.33595 12.191C5.59195 12.804 4.82395 13.441 4.20095 14.211C3.36395 15.115 3.32595 16.685 3.71695 17.702C4.21495 19.042 5.59195 19.792 6.73695 19.937C6.94095 19.968 7.14495 19.986 7.35995 19.986C8.03395 19.986 8.67395 19.823 9.29695 19.667C9.32028 19.661 9.33995 19.6587 9.35595 19.66C9.38395 19.66 9.43895 19.66 9.44895 19.802C9.46695 20.079 9.48395 20.394 9.49795 20.698C9.51795 21.193 9.54295 21.66 9.57795 21.858C9.65995 22.297 9.87795 22.833 10.024 23.186C10.086 23.335 10.134 23.452 10.148 23.511C10.204 23.711 10.152 23.93 10.017 24.054C9.54695 24.487 8.58695 24.829 8.41095 24.854C8.12795 24.888 7.82695 24.905 7.60495 24.916C7.49495 24.922 7.40495 24.926 7.35995 24.933C7.26077 24.9433 7.16803 24.9871 7.09695 25.057C6.96195 25.189 6.81695 25.566 6.64395 26.002C6.53995 26.265 6.43595 26.538 6.32895 26.763C6.02795 27.261 5.52595 27.555 5.03895 27.835C4.91628 27.905 4.79628 27.9767 4.67895 28.05L4.66495 28.064C4.46495 28.382 4.26295 28.683 4.00395 28.911C3.80395 29.098 3.54695 29.14 3.29795 29.171H3.28095L3.27095 29.185C2.88995 29.621 2.76895 30.198 2.64795 30.762C2.62995 30.8493 2.61128 30.9347 2.59195 31.018L2.57495 31.098H2.62395C2.82395 31.122 3.02395 31.164 3.23595 31.212C3.51595 31.274 3.80295 31.337 4.08695 31.337C4.35695 31.337 4.58495 31.281 4.79295 31.167C5.15595 31.001 5.34995 30.665 5.53995 30.344C5.66495 30.133 5.79295 29.911 5.96595 29.742C6.01406 29.6873 6.07376 29.644 6.14071 29.6153C6.20766 29.5866 6.28016 29.5732 6.35295 29.576C6.49495 29.576 6.65095 29.617 6.79895 29.659C6.93795 29.697 7.07895 29.735 7.21395 29.742C7.88595 29.78 8.52195 29.358 8.82995 29.112C8.96495 29.005 9.09995 28.877 9.23095 28.756C9.43495 28.566 9.64295 28.368 9.86795 28.23C10.141 28.098 10.47 28.036 10.878 28.036C11.383 28.036 11.919 28.136 12.345 28.216C12.5719 28.275 12.8054 28.3052 13.04 28.306C13.4229 28.313 13.801 28.22 14.137 28.036C14.511 27.826 14.887 27.628 15.189 27.469C15.365 27.375 15.521 27.296 15.642 27.227C16.178 26.933 16.635 26.116 16.804 25.777C16.964 25.462 17.234 24.781 17.237 24.774L17.251 24.743L16.624 24.265L16.6 24.307C16.6 24.307 16.185 24.988 15.919 25.303C14.815 26.805 13.019 26.998 11.577 26.998C11.477 26.994 11.3776 26.9917 11.279 26.991C9.49395 26.991 8.05495 27.59 7.00295 28.773C6.95495 28.828 6.86795 28.839 6.83295 28.79C6.81295 28.763 6.80595 28.718 6.81995 28.662C6.84125 28.5568 6.88122 28.4562 6.93795 28.365C8.05495 26.777 9.96495 26.542 11.504 26.514C12.642 26.438 13.469 26.241 14.189 25.874C15.113 25.404 15.794 24.366 16.064 23.542C16.24 23.002 16.327 22.425 16.41 21.868C16.476 21.425 16.545 20.968 16.655 20.546C16.665 20.5198 16.6826 20.4972 16.7056 20.4812C16.7286 20.4651 16.7559 20.4564 16.784 20.456C16.797 20.456 16.808 20.456 16.828 20.466C16.888 20.477 16.998 20.518 16.998 20.605C16.842 21.477 16.631 22.674 17.029 23.67C17.216 24.064 17.61 24.258 18.24 24.258C18.6199 24.258 19.036 24.192 19.44 24.13C19.752 24.082 20.0459 24.033 20.298 24.023C20.4046 24.013 20.5133 24.0083 20.624 24.009C21.125 24.009 21.61 24.106 22.077 24.199C22.485 24.282 22.907 24.365 23.339 24.386C23.4163 24.39 23.4983 24.396 23.585 24.404C23.734 24.417 23.889 24.428 24.049 24.428C24.4149 24.428 24.675 24.355 24.862 24.203C24.993 24.096 24.948 23.933 24.889 23.729L24.879 23.691C24.8696 23.6557 24.858 23.6177 24.844 23.577C24.761 23.307 24.634 22.899 24.844 22.708C24.8783 22.6832 24.9196 22.6698 24.962 22.67C24.996 22.67 25.045 22.68 25.059 22.736L25.128 22.971C25.221 23.297 25.318 23.636 25.526 23.926C25.966 24.486 26.643 25.019 27.487 25.459C28.031 25.832 28.684 26.462 28.737 27.341C28.737 27.739 28.349 28.015 28.062 28.188C27.608 28.413 26.833 28.666 26.467 28.666C26.4184 28.6696 26.3696 28.6614 26.325 28.642C25.799 28.362 25.529 27.908 25.242 27.427C25.0919 27.1632 24.9221 26.9111 24.734 26.673C24.46 26.369 24.114 26.251 23.647 26.289C23.197 26.324 22.7819 26.41 22.291 26.514C22.2431 26.5223 22.198 26.5422 22.1595 26.5718C22.121 26.6014 22.0903 26.6399 22.07 26.684C22.0486 26.7365 22.0398 26.7933 22.0445 26.8497C22.0492 26.9062 22.0672 26.9608 22.097 27.009C22.353 27.465 22.599 27.88 22.862 28.319L22.98 28.517C23.042 28.624 23.177 28.638 23.287 28.638C23.347 28.638 23.4116 28.6347 23.481 28.628C23.5543 28.6227 23.6293 28.6193 23.706 28.618C23.934 28.618 24.08 28.673 24.173 28.787C24.253 28.907 24.322 29.036 24.391 29.16C24.564 29.468 24.7409 29.79 25.038 30.018C25.308 30.258 25.698 30.392 26.107 30.392C26.287 30.392 26.46 30.364 26.626 30.316C27.806 29.946 28.954 29.566 30.047 28.981C30.047 28.981 30.4799 28.974 30.646 28.96L30.642 28.95ZM32.604 15.72C32.584 15.793 32.538 15.841 32.486 15.841C32.466 15.841 32.41 15.831 32.393 15.737C32.196 14.731 32.078 14.236 31.846 13.772C31.774 13.624 31.68 13.499 31.601 13.388C31.431 13.157 31.286 12.959 31.449 12.69C31.497 12.61 31.618 12.558 31.749 12.558C31.815 12.5587 31.874 12.5713 31.926 12.596C32.12 12.69 32.31 12.925 32.504 13.316C32.988 14.309 32.604 15.71 32.6 15.724L32.604 15.72ZM38.9319 25.746C38.9319 25.746 38.9 26.03 38.769 26.154C38.634 26.275 38.1569 26.341 37.9039 26.334C37.652 26.324 37.5649 26.289 37.514 26.213C37.4539 26.126 37.5509 25.957 37.5509 25.957C37.5819 25.895 37.8759 25.282 38.471 25.12C38.471 25.12 38.661 25.05 38.845 25.14C39.028 25.23 38.942 25.687 38.935 25.75L38.9319 25.746ZM40.6539 21.788C40.6365 21.9279 40.5945 22.0637 40.5299 22.189C40.499 22.245 40.447 22.366 40.274 22.369C40.084 22.369 40.097 22.148 40.097 22.117C40.097 22.117 40.073 21.497 39.955 21.238C39.827 20.954 39.205 20.155 38.845 20.19C38.755 20.197 38.52 20.339 38.347 20.563C38.136 20.837 38.136 20.871 38.07 20.913C38.0039 20.955 37.921 20.933 37.894 20.771C37.866 20.608 37.834 20.477 37.9109 20.169C37.9869 19.861 38.063 19.792 38.153 19.571C38.153 19.571 38.34 19.138 38.409 19.031C38.603 18.737 38.859 18.758 38.859 18.758C38.928 18.761 39.1489 18.733 39.389 19.031C39.665 19.377 39.6059 19.346 39.6819 19.467C39.7579 19.587 39.8419 19.716 40.07 19.965C40.298 20.215 40.5499 20.698 40.6199 20.999C40.6889 21.3 40.686 21.556 40.6469 21.789L40.6539 21.788Z" fill="#D2003C"/>
</svg>
